# xmcd CD database file
#
# Track frame offsets:
#	182
#	15105
#	34932
#	49732
#	66887
#	83437
#	104407
#	119827
#	136645
#	149527
#	164740
#	176995
#	191077
#	203470
#	221210
#	232847
#	243760
#	260935
#	275885
#	292797
#
# Disc length: 4145 seconds
#
# Revision: 5
# Processed by: cddbd v1.5.2PL0 Copyright (c) Steve Scherf et al.
# Submitted via: CDex 1.51
#
DISCID=2d102f14
DTITLE=Ray Stevens - 20 Comedy Hits
DYEAR=1995
DGENRE=Oldies
TTITLE0=The Streak
TTITLE1=Shriner's Convention
TTITLE2=Gitarzan
TTITLE3=Ahab The Arab
TTITLE4=Bridget The Midget
TTITLE5=Super Cop
TTITLE6=The All-American Two Week Summer Family Vacation
TTITLE7=The Ballad Of Jake McClusky
TTITLE8=The Motel Song
TTITLE9=Teenage Mutant Kung-Fu Chickens
TTITLE10=Tabloid News
TTITLE11=Back In The Doghouse Again
TTITLE12=A Little Blue-Haired Lady
TTITLE13=Sittin' Up With The Dead
TTITLE14=Jack Daniels, You Lied To Me Again
TTITLE15=Help Me Make It Through The Night
TTITLE16=Used Cars
TTITLE17=Barbecue
TTITLE18=Where Do My Socks Go?
TTITLE19=This Ain't Exactly What I Had In Mind
EXTD=YEAR: 1995
EXTT0=
EXTT1=
EXTT2=
EXTT3=
EXTT4=
EXTT5=
EXTT6=
EXTT7=
EXTT8=
EXTT9=
EXTT10=
EXTT11=
EXTT12=
EXTT13=
EXTT14=
EXTT15=
EXTT16=
EXTT17=
EXTT18=
EXTT19=
PLAYORDER=
